#!OML:ASF H:\Terrain\Patient Classification 1\Takeo\Monday\TakeoMonday.ASF
:FULLY-SPECIFIED
:DEGREES
197
root 10.1053 17.4319 3.59304 -4.10831 6.19729 2.53725
lowerback 5.73658 -2.14338 -3.04467
upperback 1.88945 -3.00487 1.09063
thorax -1.04996 -1.50973 3.02063
lowerneck -10.0001 6.29319 1.48867
upperneck 5.86249 8.44472 -2.67495
head 3.9008 4.08777 -0.592857
rclavicle 2.29596e-014 3.18055e-015
rhumerus -50.1229 -22.491 -65.3174
rradius 11.9476
rwrist 10.2177
rhand -19.3883 14.7046
rfingers 7.12502
rthumb 6.93028 -15.162
lclavicle 2.29596e-014 3.18055e-015
lhumerus -27.3598 -8.15817 89.2482
lradius 69.651
lwrist 28.6757
lhand -26.3832 12.7948
lfingers 7.12502
lthumb 0.175612 42.7745
rfemur -25.877 3.60134 16.0734
rtibia 24.5641
rfoot -16.8868 -11.6501
rtoes -17.9172
lfemur 16.3531 -3.97147 -29.4723
ltibia 11.4674
lfoot -15.4184 6.3231
ltoes -9.89646
198
root 10.1055 17.4131 3.7806 -4.0362 6.46454 2.66236
lowerback 5.65499 -2.18374 -3.08912
upperback 1.95355 -3.05866 1.04903
thorax -0.934448 -1.53969 3.00003
lowerneck -10.3715 6.15153 1.41831
upperneck 5.8547 8.26534 -2.72916
head 3.96678 3.99082 -0.598993
rclavicle -3.67752e-015 1.19271e-014
rhumerus -51.0917 -23.3531 -64.1216
rradius 11.6039
rwrist 11.4726
rhand -19.1611 14.6291
rfingers 7.12502
rthumb 7.14965 -15.2301
lclavicle -3.67752e-015 1.19271e-014
lhumerus -27.1979 -8.29153 89.2465
lradius 70.0848
lwrist 28.6492
lhand -26.2046 12.8585
lfingers 7.12502
lthumb 0.348141 42.8379
rfemur -26.1566 1.89862 16.5276
rtibia 23.7966
rfoot -16.8429 -11.0242
rtoes -21.0003
lfemur 17.4906 -3.9508 -29.517
ltibia 10.535
lfoot -15.0864 6.11624
ltoes -10.4234
199
root 10.1057 17.3942 3.96558 -4.11219 6.84933 2.6731
lowerback 5.82842 -2.3366 -3.07643
upperback 1.98726 -3.26542 1.08286
thorax -0.979526 -1.64266 3.04689
lowerneck -10.4684 6.03127 1.34557
upperneck 5.6951 8.12687 -2.93738
head 3.93356 3.9115 -0.664536
rclavicle -5.44173e-015 7.15625e-015
rhumerus -52.0329 -24.1531 -62.7277
rradius 11.236
rwrist 12.8897
rhand -19.1381 15.2838
rfingers 7.12502
rthumb 7.17185 -14.5747
lclavicle -5.44173e-015 7.15625e-015
lhumerus -27.3052 -8.10292 89.2155
lradius 70.6645
lwrist 28.5245
lhand -26.2487 13.2766
lfingers 7.12502
lthumb 0.305514 43.2561
rfemur -26.2972 0.174403 17.062
rtibia 23.308
rfoot -16.8842 -10.122
rtoes -21.2073
lfemur 18.622 -4.27716 -29.5075
ltibia 9.80395
lfoot -14.6651 5.98331
ltoes -10.835
200
root 10.0943 17.3797 4.15853 -4.0308 7.0624 2.6887
lowerback 5.78828 -2.40443 -3.25803
upperback 1.96137 -3.36377 1.17329
thorax -0.960129 -1.69276 3.24601
lowerneck -10.4075 5.93055 1.38119
upperneck 5.47699 8.00704 -3.24597
head 3.85976 3.84199 -0.786322
rclavicle 1.66482e-015 4.77083e-015
rhumerus -52.8212 -24.672 -61.5903
rradius 10.8675
rwrist 13.8946
rhand -18.6125 16.0455
rfingers 7.12502
rthumb 7.67921 -13.795
lclavicle 1.66482e-015 4.77083e-015
lhumerus -27.5643 -8.05524 89.3121
lradius 71.1289
lwrist 28.5966
lhand -26.4832 13.5273
lfingers 7.12502
lthumb 0.0790309 43.507
rfemur -26.5968 -0.526344 17.3992
rtibia 23.1711
rfoot -16.8617 -10.0008
rtoes -23.7833
lfemur 19.5686 -4.4678 -29.4591
ltibia 9.0468
lfoot -14.0041 5.92728
ltoes -11.8718
201
root 10.0775 17.3584 4.35258 -3.81365 7.08415 2.93185
lowerback 5.66647 -2.3809 -3.7224
upperback 1.82697 -3.35567 1.20177
thorax -1.00221 -1.68699 3.53289
lowerneck -10.5746 5.85963 1.41073
upperneck 5.63583 7.92861 -3.42893
head 3.959 3.79118 -0.850357
rclavicle -2.07481e-014 1.59028e-015
rhumerus -53.4409 -24.5835 -61.2506
rradius 10.7863
rwrist 13.9172
rhand -17.2958 15.3365
rfingers 7.12502
rthumb 8.9499 -14.4536
lclavicle -2.07481e-014 1.59028e-015
lhumerus -28.0114 -7.99076 89.5281
lradius 71.4898
lwrist 28.7566
lhand -26.4901 13.2712
lfingers 7.12502
lthumb 0.0723581 43.2509
rfemur -26.937 -0.423683 17.3586
rtibia 23.2115
rfoot -16.6754 -10.3744
rtoes -23.7431
lfemur 20.2423 -4.47197 -29.6153
ltibia 8.599
lfoot -13.4583 5.87954
ltoes -11.859
202
root 10.0672 17.3323 4.54881 -3.78205 7.01136 2.97546
lowerback 5.63794 -2.38634 -3.84771
upperback 1.74055 -3.36995 1.2101
thorax -1.06623 -1.69146 3.61373
lowerneck -10.8997 5.78041 1.54021
upperneck 6.06979 7.82587 -3.51753
head 4.18832 3.72941 -0.894805
rclavicle 9.91439e-015 6.36111e-015
rhumerus -54.369 -25.1294 -60.1529
rradius 10.6888
rwrist 15.0377
rhand -18.0226 13.1766
rfingers 7.12502
rthumb 8.24852 -16.6424
lclavicle 9.91439e-015 6.36111e-015
lhumerus -28.4828 -7.87689 89.5794
lradius 71.6451
lwrist 28.7897
lhand -26.5523 12.626
lfingers 7.12502
lthumb 0.0123447 42.6057
rfemur -26.9282 -0.248435 17.5172
rtibia 23.3474
rfoot -16.1944 -10.5651
rtoes -22.1604
lfemur 20.9332 -4.36723 -29.5884
ltibia 8.59962
lfoot -13.2294 5.85805
ltoes -11.7198
203
root 10.0596 17.3099 4.74696 -3.85535 6.86463 2.54804
lowerback 5.5229 -2.43046 -3.43489
upperback 1.81234 -3.39949 1.35003
thorax -0.941591 -1.71008 3.52013
lowerneck -11.2151 5.68667 1.50094
upperneck 6.21086 7.71203 -3.55137
head 4.29928 3.66455 -0.897195
rclavicle -8.99501e-015 -5.56597e-015
rhumerus -54.8409 -25.6204 -59.2451
rradius 9.97023
rwrist 16.4458
rhand -18.8613 12.9578
rfingers 7.12502
rthumb 7.43907 -16.8914
lclavicle -8.99501e-015 -5.56597e-015
lhumerus -28.6875 -7.64054 89.5111
lradius 71.626
lwrist 28.6528
lhand -26.4816 12.9792
lfingers 7.12502
lthumb 0.0805905 42.9589
rfemur -26.8045 0.304282 18.0889
rtibia 23.757
rfoot -15.9508 -11.1231
rtoes -20.6012
lfemur 21.7224 -4.22002 -29.0741
ltibia 8.56469
lfoot -12.9621 5.81385
ltoes -12.8762
204
root 10.0519 17.2914 4.94904 -3.91691 6.80318 2.1853
lowerback 5.36778 -2.4713 -3.03143
upperback 1.91338 -3.42605 1.46235
thorax -0.76625 -1.72793 3.39992
lowerneck -11.2992 5.59716 1.32857
upperneck 5.91805 7.61115 -3.60761
head 4.2018 3.61045 -0.894802
rclavicle 1.1778e-014 9.54166e-015
rhumerus -55.49 -26.1059 -58.2054
rradius 10.1421
rwrist 17.3017
rhand -17.8685 12.5396
rfingers 7.12502
rthumb 8.39723 -17.2734
lclavicle 1.1778e-014 9.54166e-015
lhumerus -28.8206 -7.17885 89.4236
lradius 71.429
lwrist 27.7686
lhand -25.8613 13.7077
lfingers 7.12502
lthumb 0.679663 43.6863
rfemur -26.7014 1.23307 18.4074
rtibia 24.526
rfoot -16.9941 -11.6042
rtoes -17.0387
lfemur 22.3211 -4.1566 -28.6229
ltibia 8.95943
lfoot -12.8578 5.63437
ltoes -14.3919
205
root 10.0478 17.2678 5.1589 -3.88108 6.90413 2.57332
lowerback 5.25053 -2.51201 -3.38108
upperback 1.86341 -3.49668 1.35359
thorax -0.732098 -1.76405 3.4823
lowerneck -11.1498 5.54162 1.26794
upperneck 5.74823 7.54556 -3.66908
head 4.10922 3.57791 -0.915934
rclavicle 1.16041e-014 7.95139e-016
rhumerus -55.9444 -26.1396 -57.9079
rradius 10.1463
rwrist 17.3542
rhand -16.8436 13.551
rfingers 7.12502
rthumb 9.38623 -16.22
lclavicle 1.16041e-014 7.95139e-016
lhumerus -29.2883 -6.70301 89.3858
lradius 71.152
lwrist 26.6537
lhand -25.4098 13.9559
lfingers 7.12502
lthumb 1.11575 43.9327
rfemur -26.5673 1.79426 17.918
rtibia 25.3841
rfoot -17.7715 -11.6253
rtoes -15.1594
lfemur 22.6858 -4.17842 -28.9985
ltibia 9.84189
lfoot -12.8899 5.50879
ltoes -15.6452
